<?xml version="1.0" encoding="UTF-8" standalone="no"?>
<!DOCTYPE svg PUBLIC "-//W3C//DTD SVG 1.1//EN" "http://www.w3.org/Graphics/SVG/1.1/DTD/svg11.dtd">
<svg width="100%" height="100%" viewBox="0 0 32 10" version="1.1" xmlns="http://www.w3.org/2000/svg" xmlns:xlink="http://www.w3.org/1999/xlink" xml:space="preserve" xmlns:serif="http://www.serif.com/" style="fill-rule:evenodd;clip-rule:evenodd;stroke-linejoin:round;stroke-miterlimit:2;">
    <g transform="matrix(0.0560547,0,0,0.0560547,-0.0280273,0.0280273)">
        <path d="M0.5,-0.5L62.5,-0.5C92.136,8.389 104.969,28.389 101,59.5C98.947,68.939 94.781,77.272 88.5,84.5C106.554,100.582 112.054,120.249 105,143.5C98.656,158.513 87.822,168.68 72.5,174C48.544,175.45 24.544,175.95 0.5,175.5L0.5,-0.5ZM24.5,23.5C36.886,23.106 49.22,23.606 61.5,25C75.776,32.398 80.609,43.898 76,59.5C71.604,68.57 64.437,73.737 54.5,75C44.506,75.5 34.506,75.667 24.5,75.5L24.5,23.5ZM24.5,99.5C37.171,99.333 49.838,99.5 62.5,100C79.011,104.545 85.845,115.379 83,132.5C79.829,143.339 72.662,149.506 61.5,151C49.171,151.5 36.838,151.667 24.5,151.5L24.5,99.5Z" style="fill:rgb(0,100,252);fill-opacity:0.99;"/>
    </g>
    <g transform="matrix(0.0560547,0,0,0.0560547,-0.0280273,0.0280273)">
        <path d="M436.5,-0.5L460.5,-0.5L460.5,0.5C459.171,25.003 459.171,49.67 460.5,74.5C461.107,74.376 461.44,74.043 461.5,73.5C472.302,62.867 483.302,52.367 494.5,42C506.5,41.333 518.5,41.333 530.5,42C509.833,61.333 489.167,80.667 468.5,100C489.5,125 510.5,150 531.5,175C520.833,175.667 510.167,175.667 499.5,175C486.547,159.592 473.714,144.092 461,128.5C460.5,144.163 460.333,159.83 460.5,175.5L436.5,175.5L436.5,-0.5Z" style="fill:rgb(0,100,252);fill-opacity:0.98;"/>
    </g>
    <g transform="matrix(0.0560547,0,0,0.0560547,-0.0280273,0.0280273)">
        <path d="M555.5,-0.5L561.5,-0.5C565.046,1.109 568.046,3.443 570.5,6.5L570.5,17.5C566.652,24.046 560.985,26.212 553.5,24C546.93,20.345 544.763,14.845 547,7.5C548.73,3.57 551.564,0.903 555.5,-0.5Z" style="fill:rgb(0,100,252);fill-opacity:0.96;"/>
    </g>
    <g transform="matrix(0.0560547,0,0,0.0560547,-0.0280273,0.0280273)">
        <path d="M460.5,0.5C460.169,25.006 460.502,49.339 461.5,73.5C461.44,74.043 461.107,74.376 460.5,74.5C459.171,49.67 459.171,25.003 460.5,0.5Z" style="fill:rgb(0,97,252);fill-opacity:0.37;"/>
    </g>
    <g transform="matrix(0.0560547,0,0,0.0560547,-0.0280273,0.0280273)">
        <path d="M199.5,177.5L191.5,177.5C152.767,171.424 131.767,148.757 128.5,109.5C130.388,75.791 147.388,53.958 179.5,44C213.035,38.023 238.535,49.523 256,78.5C270.779,114.48 262.613,143.98 231.5,167C221.51,172.988 210.843,176.488 199.5,177.5ZM188.5,66.5C215.013,64.859 231.513,76.859 238,102.5C239.933,121.463 233.1,136.296 217.5,147C196.304,157.267 177.804,153.767 162,136.5C150.251,119.986 149.585,102.986 160,85.5C167.316,75.767 176.816,69.434 188.5,66.5Z" style="fill:rgb(0,100,252);fill-opacity:0.97;"/>
    </g>
    <g transform="matrix(0.0560547,0,0,0.0560547,-0.0280273,0.0280273)">
        <path d="M349.5,177.5L342.5,177.5C314.734,174.246 294.901,159.913 283,134.5C272.431,101.215 280.931,74.048 308.5,53C343.129,34.729 373.629,39.896 400,68.5C418.266,96.423 417.933,124.089 399,151.5C385.803,166.68 369.303,175.346 349.5,177.5ZM338.5,66.5C372.504,66.507 389.004,83.507 388,117.5C380.52,143.331 363.354,154.831 336.5,152C311.293,143.424 300.46,125.924 304,99.5C309.222,81.775 320.722,70.775 338.5,66.5Z" style="fill:rgb(0,100,252);fill-opacity:0.97;"/>
    </g>
    <g transform="matrix(0.0560547,0,0,0.0560547,-0.0280273,0.0280273)">
        <rect x="547.5" y="42.5" width="23" height="133" style="fill:rgb(0,100,252);fill-opacity:0.98;"/>
    </g>
    <g transform="matrix(0.0560547,0,0,0.0560547,-0.0280273,0.0280273)">
        <path d="M343.5,78.5C355.785,79.082 360.951,85.415 359,97.5C357.181,100.008 356.347,102.841 356.5,106C357.789,116.146 358.789,126.312 359.5,136.5L332.5,136.5C333.318,125.941 334.651,115.441 336.5,105C335.799,102.62 334.633,100.453 333,98.5C330.505,88.484 334.005,81.817 343.5,78.5Z" style="fill:rgb(0,100,252);fill-opacity:0.97;"/>
    </g>
</svg>
